<svg viewBox="0 0 88 46" xmlns="http://www.w3.org/2000/svg" role="img" aria-label="Startup Village Borneo">
  <title>SVB hibiscus mark</title>
  <defs>
    <linearGradient id="svb-hibiscus-grad" x1="8%" y1="6%" x2="92%" y2="94%">
      <stop offset="0%" stop-color="#6d28d9"/>
      <stop offset="38%" stop-color="#ab66fd"/>
      <stop offset="72%" stop-color="#d946ef"/>
      <stop offset="100%" stop-color="#f472b6"/>
    </linearGradient>
  </defs>
  <g fill="url(#svb-hibiscus-grad)" font-family="ui-monospace, 'IBM Plex Mono', monospace" font-size="2.6" font-weight="500">
    <text x="51.85" y="3.5">+</text><text x="55.9" y="3.5">+</text><text x="59.95" y="3.5">+</text><text x="64" y="3.5">+</text><text x="68.05" y="3.5">*</text><text x="72.1" y="3.5">*</text><text x="76.15" y="3.5">*</text><text x="80.2" y="3.5">*</text>
    <text x="45.75" y="7">*</text><text x="48.8" y="7">*</text><text x="51.85" y="7">*</text><text x="54.9" y="7">/</text><text x="57.95" y="7">/</text><text x="61" y="7">/</text><text x="64.05" y="7">|</text><text x="67.1" y="7">|</text><text x="70.15" y="7">|</text><text x="73.2" y="7">|</text><text x="76.25" y="7">*</text><text x="79.3" y="7">*</text><text x="82.35" y="7">*</text>
    <text x="39.65" y="10.5">*</text><text x="42.7" y="10.5">#</text><text x="45.75" y="10.5">#</text><text x="48.8" y="10.5">@</text><text x="51.85" y="10.5">@</text><text x="54.9" y="10.5">@</text><text x="57.95" y="10.5">@</text><text x="61" y="10.5">@</text><text x="64.05" y="10.5">@</text><text x="67.1" y="10.5">@</text><text x="70.15" y="10.5">@</text><text x="73.2" y="10.5">#</text><text x="76.25" y="10.5">#</text><text x="79.3" y="10.5">*</text>
    <text x="36.6" y="14">.</text><text x="39.65" y="14">*</text><text x="42.7" y="14">#</text><text x="45.75" y="14">%</text><text x="48.8" y="14">@</text><text x="51.85" y="14">@</text><text x="54.9" y="14">@</text><text x="57.95" y="14">@</text><text x="61" y="14">@</text><text x="64.05" y="14">@</text><text x="67.1" y="14">@</text><text x="70.15" y="14">@</text><text x="73.2" y="14">@</text><text x="76.25" y="14">%</text><text x="79.3" y="14">#</text><text x="82.35" y="14">*</text><text x="85.4" y="14">.</text>
    <text x="30.5" y="17.5">.</text><text x="33.55" y="17.5">.</text><text x="36.6" y="17.5">-</text><text x="39.65" y="17.5">-</text><text x="42.7" y="17.5">#</text><text x="45.75" y="17.5">#</text><text x="48.8" y="17.5">%</text><text x="51.85" y="17.5">@</text><text x="54.9" y="17.5">@</text><text x="57.95" y="17.5">@</text><text x="61" y="17.5">@</text><text x="64.05" y="17.5">@</text><text x="67.1" y="17.5">@</text><text x="70.15" y="17.5">@</text><text x="73.2" y="17.5">%</text><text x="76.25" y="17.5">#</text><text x="79.3" y="17.5">#</text><text x="82.35" y="17.5">-</text><text x="85.4" y="17.5">-</text><text x="88.45" y="17.5">.</text><text x="91.5" y="17.5">.</text>
    <text x="36.6" y="21">*</text><text x="39.65" y="21">#</text><text x="42.7" y="21">#</text><text x="45.75" y="21">@</text><text x="48.8" y="21">@</text><text x="51.85" y="21">@</text><text x="54.9" y="21">@</text><text x="57.95" y="21">@</text><text x="61" y="21">@</text><text x="64.05" y="21">@</text><text x="67.1" y="21">@</text><text x="70.15" y="21">@</text><text x="73.2" y="21">#</text><text x="76.25" y="21">#</text><text x="79.3" y="21">*</text>
    <text x="39.65" y="24.5">*</text><text x="42.7" y="24.5">*</text><text x="45.75" y="24.5">#</text><text x="48.8" y="24.5">#</text><text x="51.85" y="24.5">#</text><text x="54.9" y="24.5">#</text><text x="57.95" y="24.5">#</text><text x="61" y="24.5">#</text><text x="64.05" y="24.5">#</text><text x="67.1" y="24.5">#</text><text x="70.15" y="24.5">#</text><text x="73.2" y="24.5">#</text><text x="76.25" y="24.5">*</text><text x="79.3" y="24.5">*</text>
    <text x="42.7" y="28">*</text><text x="45.75" y="28">:</text><text x="48.8" y="28">:</text><text x="51.85" y="28">*</text><text x="54.9" y="28">*</text><text x="57.95" y="28">*</text><text x="61" y="28">*</text><text x="64.05" y="28">*</text><text x="67.1" y="28">:</text><text x="70.15" y="28">:</text><text x="73.2" y="28">*</text>
    <text x="45.75" y="31.5">.</text><text x="48.8" y="31.5">.</text><text x="51.85" y="31.5">:</text><text x="54.9" y="31.5">:</text><text x="57.95" y="31.5">:</text><text x="61" y="31.5">.</text><text x="64.05" y="31.5">.</text>
    <text x="3.05" y="35">_</text><text x="6.1" y="35">_</text><text x="9.15" y="35">_</text><text x="12.2" y="35">_</text><text x="15.25" y="35">-</text><text x="18.3" y="35">-</text><text x="21.35" y="35">-</text><text x="24.4" y="35">-</text><text x="27.45" y="35">-</text><text x="30.5" y="35">-</text><text x="33.55" y="35">-</text><text x="36.6" y="35">-</text><text x="39.65" y="35">-</text><text x="42.7" y="35">-</text><text x="45.75" y="35">-</text><text x="48.8" y="35">-</text><text x="51.85" y="35">-</text><text x="54.9" y="35">-</text><text x="57.95" y="35">-</text><text x="61" y="35">-</text><text x="64.05" y="35">-</text><text x="67.1" y="35">-</text><text x="70.15" y="35">-</text><text x="73.2" y="35">_</text><text x="76.25" y="35">_</text><text x="79.3" y="35">_</text><text x="82.35" y="35">_</text>
    <text x="0" y="38.5">-</text><text x="3.05" y="38.5">-</text><text x="6.1" y="38.5">-</text><text x="9.15" y="38.5">-</text><text x="12.2" y="38.5">:</text><text x="15.25" y="38.5">:</text><text x="18.3" y="38.5">:</text><text x="21.35" y="38.5">:</text><text x="24.4" y="38.5">:</text><text x="27.45" y="38.5">:</text><text x="30.5" y="38.5">:</text><text x="33.55" y="38.5">:</text><text x="36.6" y="38.5">:</text><text x="39.65" y="38.5">:</text><text x="42.7" y="38.5">:</text><text x="45.75" y="38.5">:</text><text x="48.8" y="38.5">:</text><text x="51.85" y="38.5">:</text><text x="54.9" y="38.5">:</text><text x="57.95" y="38.5">:</text><text x="61" y="38.5">:</text><text x="64.05" y="38.5">:</text><text x="67.1" y="38.5">:</text><text x="70.15" y="38.5">-</text><text x="73.2" y="38.5">-</text><text x="76.25" y="38.5">-</text><text x="79.3" y="38.5">-</text>
    <text x="0" y="42">-</text><text x="3.05" y="42">-</text><text x="6.1" y="42">:</text><text x="9.15" y="42">:</text><text x="12.2" y="42">:</text><text x="15.25" y="42">:</text><text x="18.3" y="42">:</text><text x="21.35" y="42">:</text><text x="24.4" y="42">:</text><text x="27.45" y="42">:</text><text x="30.5" y="42">:</text><text x="33.55" y="42">:</text><text x="36.6" y="42">:</text><text x="39.65" y="42">:</text><text x="42.7" y="42">:</text><text x="45.75" y="42">:</text><text x="48.8" y="42">:</text><text x="51.85" y="42">:</text><text x="54.9" y="42">:</text><text x="57.95" y="42">:</text><text x="61" y="42">:</text><text x="64.05" y="42">:</text><text x="67.1" y="42">:</text><text x="70.15" y="42">:</text><text x="73.2" y="42">:</text><text x="76.25" y="42">:</text><text x="79.3" y="42">-</text><text x="82.35" y="42">-</text>
  </g>
</svg>
